<svg width="24" height="30" viewBox="0 0 24 30" fill="none" xmlns="http://www.w3.org/2000/svg">
<path d="M20.315 9.052C17.249 8.03 13.5181 6.10197 12.7271 5.29797C12.5411 5.10997 12.287 5.002 12.022 5C11.748 5.006 11.501 5.10196 11.313 5.28796C10.358 6.22896 7.45403 8.11497 3.72803 9.16797C3.29703 9.28897 3 9.683 3 10.13C3 18.489 4.30601 22.841 11.726 24.962C11.816 24.987 11.909 25 12.001 25C12.093 25 12.186 24.987 12.276 24.962C19.694 22.842 21 18.448 21 10C20.999 9.569 20.724 9.188 20.315 9.052ZM12 22.958C6.256 21.235 5.07201 18.204 5.00201 10.873C8.13701 9.88005 10.663 8.384 12.037 7.302C13.605 8.406 16.616 9.84298 18.995 10.709C18.93 18.16 17.754 21.231 12 22.958Z" fill="#41416E"/>
</svg>
