<svg width="26" height="30" viewBox="0 0 26 30" fill="none" xmlns="http://www.w3.org/2000/svg">
<g filter="url(#filter0_d_477_5570)">
<path d="M10.9989 19.75H14.9989C14.9989 20.75 14.2819 21.75 12.9989 21.75C11.7159 21.75 10.9989 20.75 10.9989 19.75ZM21.2409 15.5249L20.1349 13.679C19.7159 12.98 19.4949 12.1799 19.4949 11.3669V8.73999C19.4949 5.16099 16.5809 2.25 12.9999 2.25C9.41889 2.25 6.50489 5.16099 6.50489 8.73999V11.3669C6.50489 12.1799 6.28389 12.98 5.86489 13.679L4.75888 15.5249C4.42088 16.0869 4.4129 16.7649 4.7369 17.3369C5.0609 17.9089 5.64688 18.25 6.30388 18.25H19.6979C20.3559 18.25 20.9419 17.9079 21.2659 17.3369C21.5869 16.7659 21.5789 16.0879 21.2409 15.5249Z" fill="#41416E"/>
</g>
<defs>
<filter id="filter0_d_477_5570" x="-3" y="0" width="32" height="32" filterUnits="userSpaceOnUse" color-interpolation-filters="sRGB">
<feFlood flood-opacity="0" result="BackgroundImageFix"/>
<feColorMatrix in="SourceAlpha" type="matrix" values="0 0 0 0 0 0 0 0 0 0 0 0 0 0 0 0 0 0 127 0" result="hardAlpha"/>
<feOffset dy="4"/>
<feGaussianBlur stdDeviation="2"/>
<feComposite in2="hardAlpha" operator="out"/>
<feColorMatrix type="matrix" values="0 0 0 0 0 0 0 0 0 0 0 0 0 0 0 0 0 0 0.25 0"/>
<feBlend mode="normal" in2="BackgroundImageFix" result="effect1_dropShadow_477_5570"/>
<feBlend mode="normal" in="SourceGraphic" in2="effect1_dropShadow_477_5570" result="shape"/>
</filter>
</defs>
</svg>
