<svg width="28" height="30" viewBox="0 0 28 30" fill="none" xmlns="http://www.w3.org/2000/svg">
<g filter="url(#filter0_d_477_5576)">
<path d="M20 7V6C20 3.794 18.206 2 16 2H8C5.794 2 4 3.794 4 6V16C4 16.406 4.24601 16.772 4.62201 16.926C4.74401 16.976 4.872 17 5 17C5.264 17 5.52199 16.896 5.71399 16.7L7.38 15H8V16C8 18.206 9.794 20 12 20H20.62L22.286 21.7C22.478 21.895 22.737 22 23 22C23.127 22 23.256 21.976 23.378 21.926C23.754 21.773 24 21.406 24 21V11C24 8.794 22.206 7 20 7ZM6.95999 13C6.69099 13 6.434 13.108 6.246 13.3L6 13.551V6C6 4.897 6.897 4 8 4H16C17.103 4 18 4.897 18 6V11C18 12.103 17.103 13 16 13H6.95999ZM22 18.551L21.754 18.3C21.566 18.109 21.308 18 21.04 18H12C10.897 18 10 17.103 10 16V15H16C18.206 15 20 13.206 20 11V9C21.103 9 22 9.897 22 11V18.551Z" fill="#41416E"/>
</g>
<defs>
<filter id="filter0_d_477_5576" x="-2" y="0" width="32" height="32" filterUnits="userSpaceOnUse" color-interpolation-filters="sRGB">
<feFlood flood-opacity="0" result="BackgroundImageFix"/>
<feColorMatrix in="SourceAlpha" type="matrix" values="0 0 0 0 0 0 0 0 0 0 0 0 0 0 0 0 0 0 127 0" result="hardAlpha"/>
<feOffset dy="4"/>
<feGaussianBlur stdDeviation="2"/>
<feComposite in2="hardAlpha" operator="out"/>
<feColorMatrix type="matrix" values="0 0 0 0 0 0 0 0 0 0 0 0 0 0 0 0 0 0 0.25 0"/>
<feBlend mode="normal" in2="BackgroundImageFix" result="effect1_dropShadow_477_5576"/>
<feBlend mode="normal" in="SourceGraphic" in2="effect1_dropShadow_477_5576" result="shape"/>
</filter>
</defs>
</svg>
