<svg width="794" height="196" viewBox="0 0 794 196" fill="none" xmlns="http://www.w3.org/2000/svg">
<circle cx="98" cy="98" r="98" fill="#FAA243"/>
<path d="M126.259 119.806L98.0651 148L54.1145 104.057L51.0702 101.005C45.0286 94.9635 42 87.0025 42 79.0337C42 71.0648 45.0286 63.1038 51.0702 57.0623C63.1532 44.9792 82.922 44.9792 95.0129 57.0623L98.0651 60.1145L101.11 57.0623C107.159 51.0208 115.12 48 123.081 48C131.042 48 139.019 51.0208 145.06 57.0623C156.191 68.1935 157.065 85.8461 147.695 98.0079H98.0573" stroke="white" stroke-width="14" stroke-miterlimit="10"/>
<path d="M285.08 141.56C279.4 141.56 274.06 140.44 269.06 138.2C264.06 135.92 259.66 132.8 255.86 128.84C252.1 124.84 249.14 120.2 246.98 114.92C244.86 109.64 243.8 104 243.8 98C243.8 92 244.86 86.36 246.98 81.08C249.14 75.8 252.1 71.18 255.86 67.22C259.66 63.22 264.06 60.1 269.06 57.86C274.06 55.58 279.4 54.44 285.08 54.44C291.88 54.44 298.14 56.02 303.86 59.18C309.58 62.34 314.32 66.54 318.08 71.78L306.98 77.72C304.38 74.44 301.16 71.82 297.32 69.86C293.48 67.9 289.4 66.92 285.08 66.92C281.08 66.92 277.34 67.74 273.86 69.38C270.38 71.02 267.32 73.26 264.68 76.1C262.04 78.94 259.98 82.24 258.5 86C257.02 89.76 256.28 93.76 256.28 98C256.28 102.28 257.02 106.3 258.5 110.06C259.98 113.78 262.04 117.08 264.68 119.96C267.36 122.8 270.44 125.04 273.92 126.68C277.4 128.28 281.12 129.08 285.08 129.08C289.48 129.08 293.58 128.1 297.38 126.14C301.22 124.14 304.42 121.5 306.98 118.22L318.08 124.28C314.32 129.52 309.58 133.72 303.86 136.88C298.14 140 291.88 141.56 285.08 141.56ZM366.284 80H379.604L346.724 170H333.464L344.324 140L322.784 80H336.404L350.564 122.9L366.284 80ZM419.783 78.32C425.623 78.32 430.923 79.74 435.683 82.58C440.483 85.42 444.303 89.24 447.143 94.04C449.983 98.8 451.403 104.1 451.403 109.94C451.403 114.3 450.583 118.4 448.943 122.24C447.303 126.04 445.023 129.4 442.103 132.32C439.223 135.2 435.863 137.46 432.023 139.1C428.223 140.74 424.143 141.56 419.783 141.56C415.583 141.56 411.903 140.6 408.743 138.68C405.623 136.72 403.063 134.22 401.063 131.18V140H388.583V50H401.063V88.7C403.063 85.62 405.623 83.12 408.743 81.2C411.903 79.28 415.583 78.32 419.783 78.32ZM419.663 129.44C423.143 129.44 426.323 128.56 429.203 126.8C432.083 125.04 434.363 122.68 436.043 119.72C437.763 116.76 438.623 113.5 438.623 109.94C438.623 106.3 437.763 103 436.043 100.04C434.323 97.08 432.023 94.74 429.143 93.02C426.263 91.26 423.103 90.38 419.663 90.38C416.183 90.38 413.123 91.26 410.483 93.02C407.843 94.78 405.783 97.14 404.303 100.1C402.823 103.06 402.083 106.34 402.083 109.94C402.083 113.54 402.823 116.82 404.303 119.78C405.783 122.74 407.843 125.1 410.483 126.86C413.123 128.58 416.183 129.44 419.663 129.44ZM487.405 141.56C481.885 141.56 476.845 140.14 472.285 137.3C467.765 134.46 464.145 130.66 461.425 125.9C458.745 121.1 457.405 115.8 457.405 110C457.405 105.6 458.185 101.5 459.745 97.7C461.305 93.86 463.445 90.5 466.165 87.62C468.925 84.7 472.125 82.42 475.765 80.78C479.405 79.14 483.285 78.32 487.405 78.32C492.005 78.32 496.225 79.28 500.065 81.2C503.905 83.08 507.185 85.7 509.905 89.06C512.625 92.38 514.625 96.22 515.905 100.58C517.185 104.9 517.565 109.5 517.045 114.38H470.785C471.305 117.14 472.305 119.64 473.785 121.88C475.305 124.08 477.225 125.82 479.545 127.1C481.905 128.38 484.525 129.04 487.405 129.08C490.445 129.08 493.205 128.32 495.685 126.8C498.205 125.28 500.265 123.18 501.865 120.5L514.525 123.44C512.125 128.76 508.505 133.12 503.665 136.52C498.825 139.88 493.405 141.56 487.405 141.56ZM470.365 104.84H504.445C504.045 101.96 503.025 99.36 501.385 97.04C499.785 94.68 497.765 92.82 495.325 91.46C492.925 90.06 490.285 89.36 487.405 89.36C484.565 89.36 481.925 90.04 479.485 91.4C477.085 92.76 475.085 94.62 473.485 96.98C471.925 99.3 470.885 101.92 470.365 104.84ZM526.981 140V80H539.461V86.36C541.541 83.88 544.101 81.92 547.141 80.48C550.181 79.04 553.461 78.32 556.981 78.32C559.221 78.32 561.441 78.62 563.641 79.22L558.661 91.82C557.101 91.22 555.541 90.92 553.981 90.92C551.341 90.92 548.921 91.58 546.721 92.9C544.521 94.18 542.761 95.92 541.441 98.12C540.121 100.32 539.461 102.76 539.461 105.44V140H526.981ZM624.458 102.38V140H611.978V105.44C611.978 102.76 611.318 100.32 609.998 98.12C608.718 95.92 606.978 94.18 604.778 92.9C602.618 91.58 600.178 90.92 597.458 90.92C594.818 90.92 592.398 91.58 590.198 92.9C587.998 94.18 586.238 95.92 584.918 98.12C583.598 100.32 582.938 102.76 582.938 105.44V140H570.458V50H582.938V86.36C585.018 83.88 587.578 81.92 590.618 80.48C593.658 79.04 596.938 78.32 600.458 78.32C604.898 78.32 608.938 79.4 612.578 81.56C616.218 83.72 619.098 86.62 621.218 90.26C623.378 93.9 624.458 97.94 624.458 102.38ZM661.663 141.56C656.143 141.56 651.103 140.14 646.543 137.3C642.023 134.46 638.403 130.66 635.683 125.9C633.003 121.1 631.663 115.8 631.663 110C631.663 105.6 632.443 101.5 634.003 97.7C635.563 93.86 637.703 90.5 640.423 87.62C643.183 84.7 646.383 82.42 650.023 80.78C653.663 79.14 657.543 78.32 661.663 78.32C666.263 78.32 670.483 79.28 674.323 81.2C678.163 83.08 681.443 85.7 684.163 89.06C686.883 92.38 688.883 96.22 690.163 100.58C691.443 104.9 691.823 109.5 691.303 114.38H645.043C645.563 117.14 646.563 119.64 648.043 121.88C649.563 124.08 651.483 125.82 653.803 127.1C656.163 128.38 658.783 129.04 661.663 129.08C664.703 129.08 667.463 128.32 669.943 126.8C672.463 125.28 674.523 123.18 676.123 120.5L688.783 123.44C686.383 128.76 682.763 133.12 677.923 136.52C673.083 139.88 667.663 141.56 661.663 141.56ZM644.623 104.84H678.703C678.303 101.96 677.283 99.36 675.643 97.04C674.043 94.68 672.023 92.82 669.583 91.46C667.183 90.06 664.543 89.36 661.663 89.36C658.823 89.36 656.183 90.04 653.743 91.4C651.343 92.76 649.343 94.62 647.743 96.98C646.183 99.3 645.143 101.92 644.623 104.84ZM700.419 140V50H712.899V140H700.419ZM739.735 170H727.255V80H739.735V88.82C741.735 85.74 744.295 83.24 747.415 81.32C750.535 79.4 754.215 78.44 758.455 78.44C762.815 78.44 766.895 79.26 770.695 80.9C774.535 82.54 777.895 84.82 780.775 87.74C783.655 90.62 785.915 93.96 787.555 97.76C789.195 101.56 790.015 105.64 790.015 110C790.015 114.36 789.195 118.46 787.555 122.3C785.915 126.14 783.655 129.52 780.775 132.44C777.895 135.32 774.535 137.58 770.695 139.22C766.895 140.86 762.815 141.68 758.455 141.68C754.215 141.68 750.535 140.72 747.415 138.8C744.295 136.84 741.735 134.34 739.735 131.3V170ZM758.335 90.5C754.855 90.5 751.795 91.38 749.155 93.14C746.515 94.9 744.455 97.26 742.975 100.22C741.495 103.14 740.755 106.4 740.755 110C740.755 113.6 741.495 116.88 742.975 119.84C744.455 122.8 746.515 125.16 749.155 126.92C751.795 128.68 754.855 129.56 758.335 129.56C761.775 129.56 764.935 128.7 767.815 126.98C770.695 125.22 772.995 122.86 774.715 119.9C776.435 116.94 777.295 113.64 777.295 110C777.295 106.44 776.435 103.18 774.715 100.22C773.035 97.26 770.755 94.9 767.875 93.14C764.995 91.38 761.815 90.5 758.335 90.5Z" fill="#1D3557"/>
</svg>
