<svg width="24" height="24" viewBox="0 0 24 24" fill="none" xmlns="http://www.w3.org/2000/svg">
<path d="M21.4208 5.66912L18.1408 18.7892C17.6708 20.6592 16.0708 21.4992 14.6708 21.4992C14.6608 21.4992 14.6508 21.4992 14.6508 21.4992C13.2408 21.4892 11.6308 20.6292 11.1908 18.7392L10.3308 15.0893L15.7108 9.70916C16.1008 9.31916 16.1008 8.67924 15.7108 8.28924C15.3208 7.89924 14.6808 7.89924 14.2908 8.28924L8.91079 13.6691L5.26083 12.8093C3.37083 12.3693 2.51082 10.7593 2.50082 9.35931C2.49082 7.94931 3.33084 6.32931 5.21084 5.85931L18.3308 2.57928C19.2008 2.35928 20.1108 2.6092 20.7508 3.2492C21.3908 3.8892 21.6408 4.79912 21.4208 5.66912Z" fill="#41416E"/>
</svg>
