<svg width="28" height="30" viewBox="0 0 28 30" fill="none" xmlns="http://www.w3.org/2000/svg">
<g filter="url(#filter0_d_477_5580)">
<path d="M22.6701 15.5179L21.5641 13.673C21.1911 13.051 20.9951 12.3409 20.9951 11.6169V8.98999C20.9951 5.13599 17.8571 2 14.0001 2C10.1431 2 7.00508 5.13599 7.00508 8.98999V11.6169C7.00508 12.3409 6.80808 13.051 6.43608 13.672L5.33007 15.5179C4.89807 16.2379 4.88808 17.103 5.30108 17.833C5.71408 18.563 6.46308 19 7.30308 19H10.9991C10.9991 20.654 12.3451 22 13.9991 22C15.6531 22 16.9991 20.654 16.9991 19H20.6961C21.5361 19 22.2851 18.563 22.6991 17.833C23.1121 17.103 23.1011 16.2369 22.6701 15.5179ZM13.9991 20C13.4481 20 12.9991 19.552 12.9991 19H14.9991C14.9991 19.552 14.5501 20 13.9991 20ZM20.9581 16.848C20.9261 16.905 20.8491 17 20.6961 17H7.30207C7.14907 17 7.07208 16.904 7.04008 16.848C7.00808 16.792 6.96608 16.677 7.04408 16.547L8.15008 14.7C8.70808 13.768 9.00409 12.7019 9.00409 11.6169V8.98999C9.00409 6.23799 11.2451 4 13.9991 4C16.7531 4 18.9941 6.23799 18.9941 8.98999V11.6169C18.9941 12.7019 19.2891 13.7681 19.8481 14.701L20.9551 16.547C21.0321 16.677 20.9901 16.791 20.9581 16.848Z" fill="#41416E"/>
</g>
<defs>
<filter id="filter0_d_477_5580" x="-2" y="0" width="32" height="32" filterUnits="userSpaceOnUse" color-interpolation-filters="sRGB">
<feFlood flood-opacity="0" result="BackgroundImageFix"/>
<feColorMatrix in="SourceAlpha" type="matrix" values="0 0 0 0 0 0 0 0 0 0 0 0 0 0 0 0 0 0 127 0" result="hardAlpha"/>
<feOffset dy="4"/>
<feGaussianBlur stdDeviation="2"/>
<feComposite in2="hardAlpha" operator="out"/>
<feColorMatrix type="matrix" values="0 0 0 0 0 0 0 0 0 0 0 0 0 0 0 0 0 0 0.25 0"/>
<feBlend mode="normal" in2="BackgroundImageFix" result="effect1_dropShadow_477_5580"/>
<feBlend mode="normal" in="SourceGraphic" in2="effect1_dropShadow_477_5580" result="shape"/>
</filter>
</defs>
</svg>
