<svg width="24" height="31" viewBox="0 0 24 31" fill="none" xmlns="http://www.w3.org/2000/svg">
<g filter="url(#filter0_d_477_5582)">
<path d="M17.3415 9.48369C17.2015 9.2031 17.2015 8.86838 17.3415 8.58678L19.8945 3.47106C20.0495 3.16041 20.0325 2.79161 19.8505 2.49599C19.6685 2.20137 19.3465 2.021 18.9995 2.021H8.99951C6.24251 2.021 3.99951 4.26872 3.99951 7.03152V21.0189C3.99951 21.5731 4.44751 22.021 4.99951 22.021C5.55151 22.021 5.99951 21.5731 5.99951 21.0189V16.0505H18.9995C19.3465 16.0505 19.6675 15.8701 19.8505 15.5745C20.0335 15.2789 20.0495 14.9101 19.8945 14.5994L17.3415 9.48369ZM5.99951 14.0462V7.03152C5.99951 5.37404 7.34551 4.0252 8.99951 4.0252H17.3815L15.5525 7.69086C15.1325 8.53263 15.1325 9.53882 15.5525 10.3806L17.3815 14.0462H5.99951Z" fill="#41416E"/>
</g>
<defs>
<filter id="filter0_d_477_5582" x="-4" y="0" width="32" height="32" filterUnits="userSpaceOnUse" color-interpolation-filters="sRGB">
<feFlood flood-opacity="0" result="BackgroundImageFix"/>
<feColorMatrix in="SourceAlpha" type="matrix" values="0 0 0 0 0 0 0 0 0 0 0 0 0 0 0 0 0 0 127 0" result="hardAlpha"/>
<feOffset dy="4"/>
<feGaussianBlur stdDeviation="2"/>
<feComposite in2="hardAlpha" operator="out"/>
<feColorMatrix type="matrix" values="0 0 0 0 0 0 0 0 0 0 0 0 0 0 0 0 0 0 0.25 0"/>
<feBlend mode="normal" in2="BackgroundImageFix" result="effect1_dropShadow_477_5582"/>
<feBlend mode="normal" in="SourceGraphic" in2="effect1_dropShadow_477_5582" result="shape"/>
</filter>
</defs>
</svg>
