<svg width="24" height="30" viewBox="0 0 24 30" fill="none" xmlns="http://www.w3.org/2000/svg">
<path d="M20.5 10.0022C20.5 18.3632 19.293 22.4392 12.138 24.4822C12.093 24.4952 12.047 24.5022 12.001 24.5022C11.955 24.5022 11.909 24.4952 11.864 24.4822C4.70801 22.4372 3.5 18.4031 3.5 10.1311C3.5 9.90711 3.64901 9.71115 3.86401 9.65015C7.70701 8.56515 10.634 6.66127 11.664 5.64527C11.759 5.55227 11.893 5.48022 12.019 5.50122C12.151 5.50222 12.278 5.55615 12.371 5.65015C13.302 6.59415 17.232 8.55013 20.158 9.52613C20.362 9.59613 20.5 9.7872 20.5 10.0022Z" fill="#41416E"/>
</svg>
