<svg width="24" height="24" viewBox="0 0 24 24" fill="none" xmlns="http://www.w3.org/2000/svg">
<path d="M20.5 7.0022C20.5 15.3632 19.293 19.4392 12.138 21.4822C12.093 21.4952 12.047 21.5022 12.001 21.5022C11.955 21.5022 11.909 21.4952 11.864 21.4822C4.70801 19.4372 3.5 15.4031 3.5 7.13111C3.5 6.90711 3.64901 6.71115 3.86401 6.65015C7.70701 5.56515 10.634 3.66127 11.664 2.64527C11.759 2.55227 11.893 2.48022 12.019 2.50122C12.151 2.50222 12.278 2.55615 12.371 2.65015C13.302 3.59415 17.232 5.55013 20.158 6.52613C20.362 6.59613 20.5 6.7872 20.5 7.0022Z" fill="#41416E"/>
</svg>
