<svg width="28" height="31" viewBox="0 0 28 31" fill="none" xmlns="http://www.w3.org/2000/svg">
<g filter="url(#filter0_d_477_5584)">
<path d="M22.135 7.12L17.135 3.09947C15.319 1.63888 12.682 1.63888 10.865 3.09947L5.86501 7.12C4.68001 8.07339 4 9.49305 4 11.0137V17.008C4 19.7631 6.243 22.004 9 22.004H12V17.007C12 15.9056 12.897 15.0112 14 15.0112C15.103 15.0112 16 15.9066 16 17.007V22.004H19C21.757 22.004 24 19.7631 24 17.008V11.0137C24 9.49305 23.32 8.07339 22.135 7.12ZM22 17.008C22 18.6597 20.654 20.0032 19 20.0032H18V17.007C18 14.8031 16.206 13.0104 14 13.0104C11.794 13.0104 10 14.8031 10 17.007V20.0032H9C7.346 20.0032 6 18.6597 6 17.008V11.0137C6 10.1023 6.408 9.25094 7.118 8.67971L12.118 4.65905C13.209 3.7827 14.792 3.7827 15.882 4.65905L20.882 8.67971C21.593 9.25094 22.001 10.1023 22.001 11.0137V17.008H22Z" fill="#41416E"/>
</g>
<defs>
<filter id="filter0_d_477_5584" x="-2" y="0" width="32" height="32" filterUnits="userSpaceOnUse" color-interpolation-filters="sRGB">
<feFlood flood-opacity="0" result="BackgroundImageFix"/>
<feColorMatrix in="SourceAlpha" type="matrix" values="0 0 0 0 0 0 0 0 0 0 0 0 0 0 0 0 0 0 127 0" result="hardAlpha"/>
<feOffset dy="4"/>
<feGaussianBlur stdDeviation="2"/>
<feComposite in2="hardAlpha" operator="out"/>
<feColorMatrix type="matrix" values="0 0 0 0 0 0 0 0 0 0 0 0 0 0 0 0 0 0 0.25 0"/>
<feBlend mode="normal" in2="BackgroundImageFix" result="effect1_dropShadow_477_5584"/>
<feBlend mode="normal" in="SourceGraphic" in2="effect1_dropShadow_477_5584" result="shape"/>
</filter>
</defs>
</svg>
