<svg width="28" height="30" viewBox="0 0 28 30" fill="none" xmlns="http://www.w3.org/2000/svg">
<g filter="url(#filter0_d_477_5566)">
<path d="M23.5 11V21C23.5 21.2 23.38 21.39 23.19 21.46C23.13 21.49 23.06 21.5 23 21.5C22.87 21.5 22.74 21.4501 22.64 21.3501L20.83 19.5H12C10.07 19.5 8.5 17.93 8.5 16H16C18.76 16 21 13.76 21 11V7.6499C22.44 8.0799 23.5 9.42 23.5 11ZM19.5 11V6C19.5 4.07 17.93 2.5 16 2.5H8C6.07 2.5 4.5 4.07 4.5 6V16C4.5 16.2 4.62 16.39 4.81 16.46C4.87 16.49 4.94 16.5 5 16.5C5.13 16.5 5.25999 16.4501 5.35999 16.3501L7.17001 14.5H16C17.93 14.5 19.5 12.93 19.5 11Z" fill="#41416E"/>
</g>
<defs>
<filter id="filter0_d_477_5566" x="-2" y="0" width="32" height="32" filterUnits="userSpaceOnUse" color-interpolation-filters="sRGB">
<feFlood flood-opacity="0" result="BackgroundImageFix"/>
<feColorMatrix in="SourceAlpha" type="matrix" values="0 0 0 0 0 0 0 0 0 0 0 0 0 0 0 0 0 0 127 0" result="hardAlpha"/>
<feOffset dy="4"/>
<feGaussianBlur stdDeviation="2"/>
<feComposite in2="hardAlpha" operator="out"/>
<feColorMatrix type="matrix" values="0 0 0 0 0 0 0 0 0 0 0 0 0 0 0 0 0 0 0.25 0"/>
<feBlend mode="normal" in2="BackgroundImageFix" result="effect1_dropShadow_477_5566"/>
<feBlend mode="normal" in="SourceGraphic" in2="effect1_dropShadow_477_5566" result="shape"/>
</filter>
</defs>
</svg>
